<svg xmlns="http://www.w3.org/2000/svg" viewBox="0 0 120 190">
  <defs>
    <linearGradient id="hair" x1="0" y1="0" x2="1" y2="1">
      <stop offset="0" stop-color="#28304f"/>
      <stop offset="1" stop-color="#090d1d"/>
    </linearGradient>
    <linearGradient id="shirt" x1="0" y1="0" x2="1" y2="1">
      <stop offset="0" stop-color="#ff8eb5"/>
      <stop offset="1" stop-color="#d93673"/>
    </linearGradient>
  </defs>
  <g stroke="#273452" stroke-width="3" stroke-linejoin="round">
    <path fill="#171d38" d="M92 42c23 4 25 29 13 42-8 8-18 10-25 2l5-43z"/>
    <path fill="url(#hair)" d="M29 58C8 43 15 14 43 8c31-7 54 13 47 45l-9 31-57-5c-9-9-8-16 5-21z"/>
    <ellipse fill="#ffd2a7" cx="59" cy="49" rx="29" ry="31"/>
    <path fill="url(#hair)" d="M30 43C32 17 58 5 82 22l7 18-17-9-8 13-13-12-10 15z"/>
    <path fill="#ff6f9d" d="M29 20 12 9l6 18-13 9 23 3zM29 20l17-14-5 21z"/>
    <ellipse fill="#273452" stroke="none" cx="48" cy="51" rx="4" ry="6"/>
    <ellipse fill="#273452" stroke="none" cx="70" cy="51" rx="4" ry="6"/>
    <path fill="none" d="M54 65q6 6 13 0"/>
    <path fill="url(#shirt)" d="M36 80l23-9 26 10 8 44H29z"/>
    <path fill="#ff5f98" d="M29 104h64l1 14H28z"/>
    <path fill="#b92e68" d="M28 118h67l-8 23H36z"/>
    <path fill="#ffd2a7" d="M31 84 14 113l8 7 22-25zM84 84l18 25-8 7-22-24z"/>
    <path fill="#ffd2a7" d="M45 141h12v31H42zM67 141h12v31H64z"/>
    <path fill="#273452" d="M40 170h19v10H36zM63 170h20v10H59z"/>
  </g>
</svg>
